:SAMPLES-PER-SECOND 30
:FULLY-SPECIFIED
:DEGREES
294
root  -4.23331 39.7246 -2.28462 78.6147 -84.1687 -87.2357
RightUpLeg  9.27501 -1.72418 8.94518
RightLeg  10.4241 -27.8652 -1.45965
RightFoot  -11.0891 -0.0761926 0.50716
RightToes  -3.1126e-008 1.75238e-005 3.56266e-009
Spine  -19.0617 -2.20746 -4.03286
Spine1  26.9743 -1.55855 2.80099
HEad  -5.51186 2.49071 -0.35441
LeftShoulder1  1.61473 -3.86768 -15.0753
LeftArm  -39.5695 -33.421 -66.8174
LeftForeArm  -2.75288 -67.2313 -29.2581
LeftHand  3.54162 -12.5306 -22.0942
RightShoulder  2.32928 4.85997 21.588
RightArm  -6.16388 -21.9687 58.0029
RightForeArm  34.763 28.024 4.17164
RightHand  0.324911 2.73583 4.43689
LeftUpLeg  3.80799 10.5309 15.4558
LeftLeg  22.1908 -0.507843 0.0986501
LeftFoot  -15.3751 -0.192126 -8.05854
LeftToes  4.78349e-008 1.46828e-008 1.33736e-009
295
root  -4.28156 39.7267 -2.41257 77.07 -84.3956 -85.4928
RightUpLeg  9.13869 -1.6237 8.98559
RightLeg  10.4504 -28.0973 -1.60336
RightFoot  -11.2264 -0.0766637 0.573931
RightToes  -3.1126e-008 1.75238e-005 3.56266e-009
Spine  -19.0849 -2.05779 -4.48253
Spine1  25.7213 -1.30976 2.90084
HEad  -2.89139 2.33188 -1.0679
LeftShoulder1  1.55447 -3.66832 -14.8157
LeftArm  -38.9875 -34.0697 -65.2232
LeftForeArm  -8.33613 -61.0387 -21.7626
LeftHand  2.5729 -10.0451 -18.6991
RightShoulder  2.46314 5.26452 21.8324
RightArm  -5.96544 -23.9158 57.3398
RightForeArm  35.0626 26.6307 3.8557
RightHand  0.377281 2.35569 5.45715
LeftUpLeg  3.78578 10.3334 15.3137
LeftLeg  21.8747 -0.473051 0.117214
LeftFoot  -15.3233 -0.195814 -8.25887
LeftToes  4.78349e-008 1.46828e-008 1.33736e-009
296
root  -4.35902 39.6997 -2.52627 75.1974 -84.2368 -83.5968
RightUpLeg  9.24782 -1.47456 9.39632
RightLeg  10.4195 -28.5463 -1.63035
RightFoot  -11.4163 -0.0770275 0.35607
RightToes  -3.1126e-008 1.75238e-005 3.56266e-009
Spine  -19.0487 -1.83041 -4.31924
Spine1  24.8695 -0.991422 2.69584
HEad  -0.874891 2.2311 -1.75896
LeftShoulder1  1.43929 -3.28333 -14.3011
LeftArm  -37.4155 -34.7254 -64.2856
LeftForeArm  -10.5342 -54.2557 -16.5669
LeftHand  1.51089 -7.52729 -13.1036
RightShoulder  2.67757 5.8186 22.5146
RightArm  -7.00716 -25.8275 56.6053
RightForeArm  35.9006 25.3824 3.5487
RightHand  0.37889 2.69919 5.22926
LeftUpLeg  3.7525 10.0671 15.6293
LeftLeg  22.0161 -0.553955 0.0808852
LeftFoot  -15.5084 -0.213563 -8.40688
LeftToes  4.78349e-008 1.46828e-008 1.33736e-009
297
root  -4.4085 39.6453 -2.60893 70.2751 -83.9563 -78.6498
RightUpLeg  9.05619 -1.54597 9.69115
RightLeg  10.9918 -29.0712 -1.80748
RightFoot  -11.8109 -0.0783348 0.403229
RightToes  -3.1126e-008 1.75238e-005 3.56266e-009
Spine  -19.0966 -1.90101 -4.37241
Spine1  24.4302 -1.05154 2.86297
HEad  0.560948 1.85175 -2.23346
LeftShoulder1  1.31536 -2.80662 -13.9055
LeftArm  -34.6291 -35.1475 -63.459
LeftForeArm  -11.2647 -47.3691 -12.9298
LeftHand  0.664619 -4.48617 -7.53519
RightShoulder  2.64208 5.71435 22.4464
RightArm  -6.40013 -26.7983 56.3605
RightForeArm  35.8605 24.2187 3.32513
RightHand  0.369535 2.83393 4.99809
LeftUpLeg  3.26918 9.12486 15.7327
LeftLeg  22.6811 -0.258021 0.207896
LeftFoot  -15.7787 -0.24032 -8.62934
LeftToes  4.78349e-008 1.46828e-008 1.33736e-009
298
root  -4.4785 39.587 -2.68787 66.326 -83.5851 -75.1983
RightUpLeg  9.59006 -1.70545 10.0559
RightLeg  11.2465 -29.5183 -1.81926
RightFoot  -12.1518 -0.0797923 0.357443
RightToes  -3.1126e-008 1.75238e-005 3.56266e-009
Spine  -19.1598 -1.79298 -4.29598
Spine1  24.8942 -0.97349 3.04713
HEad  1.06354 1.60032 -2.60826
LeftShoulder1  1.29181 -2.79941 -13.5188
LeftArm  -30.283 -35.1044 -62.5384
LeftForeArm  -11.2822 -40.8252 -10.3303
LeftHand  0.0445218 -1.33702 -0.454231
RightShoulder  2.60586 5.66265 22.1986
RightArm  -6.99344 -27.6161 56.4888
RightForeArm  36.2701 23.5881 3.23252
RightHand  0.353984 2.46992 5.03206
LeftUpLeg  3.43357 8.74625 16.2624
LeftLeg  23.3588 -0.600711 0.0428723
LeftFoot  -16.0803 -0.260505 -8.60563
LeftToes  4.78349e-008 1.46828e-008 1.33736e-009
299
root  -4.51064 39.5228 -2.7459 67.7142 -83.4109 -77.0704
RightUpLeg  9.80685 -1.73742 10.3949
RightLeg  12.0501 -29.4796 -2.17398
RightFoot  -12.5101 -0.0820713 0.254193
RightToes  -3.1126e-008 1.75238e-005 3.56266e-009
Spine  -19.393 -1.56056 -4.36276
Spine1  26.0385 -0.948002 3.70588
HEad  0.53528 1.72266 -3.01317
LeftShoulder1  1.28515 -2.73592 -13.6313
LeftArm  -25.2064 -34.6481 -61.5744
LeftForeArm  -7.08724 -34.618 -8.14377
LeftHand  -0.261179 1.79318 7.9285
RightShoulder  2.60699 5.66683 22.1974
RightArm  -7.58294 -27.7965 56.241
RightForeArm  36.3995 23.6658 3.23087
RightHand  0.342553 2.55382 4.80837
LeftUpLeg  3.7099 8.95384 16.8441
LeftLeg  24.0501 -0.927282 -0.124116
LeftFoot  -16.42 -0.290887 -8.76248
LeftToes  4.78349e-008 1.46828e-008 1.33736e-009
300
root  -4.53585 39.476 -2.78555 66.8854 -83.1271 -76.7568
RightUpLeg  10.2624 -1.76259 10.777
RightLeg  12.3346 -29.7634 -2.33693
RightFoot  -12.6036 -0.0835903 0.158835
RightToes  -3.1126e-008 1.75238e-005 3.56266e-009
Spine  -19.1789 -1.50551 -4.3372
Spine1  26.5877 -1.06664 4.13554
HEad  0.660216 1.27636 -3.32979
LeftShoulder1  1.33118 -2.90201 -13.8283
LeftArm  -21.2099 -33.0151 -61.2845
LeftForeArm  6.0455 -27.6278 -5.6605
LeftHand  -0.329194 2.19096 11.7358
RightShoulder  2.62672 5.64811 22.4887
RightArm  -7.29396 -27.5427 55.7205
RightForeArm  35.4393 23.4528 3.29847
RightHand  0.281529 2.66689 3.85045
LeftUpLeg  3.97112 8.65491 17.2901
LeftLeg  24.6 -1.0056 -0.173792
LeftFoot  -16.6217 -0.304476 -8.74557
LeftToes  4.78349e-008 1.46828e-008 1.33736e-009
301
root  -4.57294 39.4452 -2.81291 65.0584 -82.9558 -75.2282
RightUpLeg  10.5406 -1.90281 10.9076
RightLeg  12.5425 -29.9517 -2.38373
RightFoot  -12.7475 -0.0856943 0.0475919
RightToes  -3.1126e-008 1.75238e-005 3.56266e-009
Spine  -19.079 -1.70518 -4.86442
Spine1  27.1367 -1.55073 5.06639
HEad  1.09094 1.3904 -3.65843
LeftShoulder1  1.47692 -3.38048 -14.5781
LeftArm  -20.8915 -30.1868 -60.2869
LeftForeArm  28.111 -20.3464 -3.51939
LeftHand  -0.517632 -0.0665847 11.1687
RightShoulder  2.57991 5.49443 22.4591
RightArm  -8.02732 -26.7665 55.7032
RightForeArm  35.8205 22.7126 3.39412
RightHand  0.265837 2.89082 3.50641
LeftUpLeg  4.07892 8.2351 17.4546
LeftLeg  24.9554 -1.02699 -0.192307
LeftFoot  -16.7378 -0.317599 -8.85033
LeftToes  4.78349e-008 1.46828e-008 1.33736e-009
302
root  -4.59802 39.4536 -2.82123 66.484 -82.9833 -76.4756
RightUpLeg  10.4238 -1.85036 10.9144
RightLeg  12.4554 -29.8124 -2.27895
RightFoot  -12.6881 -0.0861585 -0.0236675
RightToes  -3.1126e-008 1.75238e-005 3.56266e-009
Spine  -19.1858 -1.98325 -5.34658
Spine1  27.3016 -2.05481 5.70441
HEad  1.72455 2.06098 -3.90171
LeftShoulder1  1.64167 -3.80477 -15.6631
LeftArm  -26.225 -25.0966 -59.2674
LeftForeArm  57.883 -15.4104 -2.38518
LeftHand  -0.714422 -3.05716 10.0523
RightShoulder  2.56295 5.36383 22.6976
RightArm  -9.66248 -25.9356 55.8225
RightForeArm  36.8548 22.6601 3.35468
RightHand  0.279768 2.77163 3.76254
LeftUpLeg  3.96644 8.51371 17.5362
LeftLeg  24.9564 -1.09715 -0.227805
LeftFoot  -16.6191 -0.308835 -8.84482
LeftToes  4.78349e-008 1.46828e-008 1.33736e-009
303
root  -4.62012 39.4866 -2.80376 71.4259 -83.2494 -81.0209
RightUpLeg  10.1554 -1.69449 10.7749
RightLeg  12.1744 -29.307 -2.178
RightFoot  -12.4782 -0.0861999 -0.178448
RightToes  -3.1126e-008 1.75238e-005 3.56266e-009
Spine  -19.2044 -2.24014 -5.79743
Spine1  27.2135 -2.5517 6.36818
HEad  1.93319 3.46585 -4.18092
LeftShoulder1  1.8346 -4.05212 -17.6715
LeftArm  -28.474 -18.5268 -57.8943
LeftForeArm  78.8754 -12.5558 -0.40445
LeftHand  -0.855966 -5.14427 9.69792
RightShoulder  2.36652 4.83744 22.1485
RightArm  -9.91784 -25.2774 56.6627
RightForeArm  35.4948 23.5204 3.30584
RightHand  0.249317 2.64679 3.43657
LeftUpLeg  3.88884 9.15217 17.4432
LeftLeg  24.71 -1.04129 -0.194098
LeftFoot  -16.3621 -0.296176 -8.97456
LeftToes  4.78349e-008 1.46828e-008 1.33736e-009
304
root  -4.63607 39.5323 -2.77042 78.916 -83.4636 -87.9627
RightUpLeg  9.82971 -1.48074 10.6284
RightLeg  11.6094 -28.6235 -1.94017
RightFoot  -12.1661 -0.0853584 -0.417544
RightToes  -3.1126e-008 1.75238e-005 3.56266e-009
Spine  -18.8143 -2.44599 -5.34664
Spine1  26.4774 -2.55883 5.61571
HEad  2.22635 4.55708 -3.49101
LeftShoulder1  1.83553 -3.78834 -18.612
LeftArm  -30.587 -10.5989 -57.7333
LeftForeArm  88.0519 -9.53428 1.33008
LeftHand  -0.907472 -5.00808 10.4178
RightShoulder  2.32698 4.59164 22.5409
RightArm  -10.6409 -25.0363 57.0844
RightForeArm  34.5967 25.0539 3.53533
RightHand  0.193318 3.61055 2.2288
LeftUpLeg  3.76814 9.84384 17.2825
LeftLeg  24.3245 -0.757239 -0.0459836
LeftFoot  -16.041 -0.273058 -8.97336
LeftToes  4.78349e-008 1.46828e-008 1.33736e-009
305
root  -4.6574 39.5956 -2.72834 89.9617 -83.5843 -98.3047
RightUpLeg  9.42734 -1.21812 10.4128
RightLeg  10.866 -27.5717 -1.59694
RightFoot  -11.7033 -0.0810615 -0.598078
RightToes  -3.1126e-008 1.75238e-005 3.56266e-009
Spine  -18.5143 -2.57912 -5.1825
Spine1  25.5846 -2.6096 5.27489
HEad  1.94027 5.75579 -2.75384
LeftShoulder1  1.94763 -3.8298 -20.1138
LeftArm  -34.7716 -1.02562 -57.3294
LeftForeArm  88.8463 -7.26683 2.73402
LeftHand  -0.808549 -3.68173 10.6005
RightShoulder  2.36254 4.65522 22.7673
RightArm  -12.0691 -25.085 57.6794
RightForeArm  32.7293 26.6117 3.97152
RightHand  0.241342 3.48284 2.90943
LeftUpLeg  3.72035 10.7523 17.0424
LeftLeg  23.6873 -0.218478 0.22297
LeftFoot  -15.5971 -0.234117 -8.80294
LeftToes  4.78349e-008 1.46828e-008 1.33736e-009
